<svg id="Layer_1" data-name="Layer 1" xmlns="http://www.w3.org/2000/svg" viewBox="0 0 512 512"><title>light-bulb-handdrawn</title><path d="M330.92,46.25c-.51.86,2.87.68,2.45,1.39-.76,1.29-29.35-12.86-30.28-11.29-1.79,3,44.12,21.89,42.77,24.19-1.13,1.92-57.9-35.07-59.36-32.59s73.25,35.59,70.66,40c-2.06,3.5-69.84-39.9-71.44-37.18-3.4,5.76,68.07,31.6,65,36.77-2.48,4.2-65.69-39-67.29-36.32-3.26,5.52,87.07,44.93,85.17,48.17-2.31,3.92-94.24-57.68-97.16-52.73-3.51,6,98.68,47,94.79,53.61-1.89,3.2-100-59.24-102.46-55-4.28,7.26,98.94,50.07,96.34,54.48-3.58,6.08-97-57.82-100.66-51.62C257.05,32.2,377.27,88,374.32,93c-2,3.46-111.5-67.15-113.66-63.5S375.18,88.46,372.6,92.83C369.41,98.24,258.74,19.19,254,27.16,249.69,34.55,383,94.84,380.65,98.76c-3.16,5.36-114.88-70.56-117.51-66.1-3.59,6.1,120.28,59.77,116.63,66-4.48,7.59-119-74.33-123.21-67.23-5.4,9.15,121.32,57.78,116.53,65.9-4.91,8.32-128.37-76.55-130.92-72.22-4,6.84,131.07,66.52,127.71,72.23-5.07,8.6-125.41-75-129.66-67.75-3,5.08,135.76,69.61,132.59,75-4,6.75-136.36-75.85-138.77-71.77-4.63,7.86,159.08,80.66,155,87.64-4.67,7.92-160.41-97.22-163.5-92-6.59,11.18,154.78,76.11,149.73,84.68-3,5.09-148.43-83-151-78.57-7,11.8,159.68,81.26,155.69,88-5.29,9-158.83-98.92-165.05-88.35-5.68,9.64,181.62,91.23,176.54,99.84C384.59,145.57,222.8,31.67,216.6,42.19,210,53.31,386.47,128.11,382,135.72c-6.73,11.42-167.31-103.88-173.52-93.34-7.84,13.31,192.68,96.5,187.17,105.85-5.14,8.71-192.54-118.58-198-109.34-6,10.1,193,95.06,186.76,105.62-7.16,12.14-175.65-109.85-182.56-98.14-4.54,7.7,186.91,93.12,181.35,102.56C375.86,161.38,196.48,39.56,192.55,46.22c-6.78,11.51,198.37,101.68,193.73,109.56C379,168.1,194.34,41.08,188.72,50.61c-3.83,6.5,208,101.4,200.84,113.58-6.6,11.19-187.69-121.73-194.61-110-8.37,14.2,204,96.33,195.56,110.6C384,175.88,190.06,42,185.13,50.39c-5.35,9.08,202.61,97.83,195.2,110.4S196.42,43.34,189.44,55.18C182.79,66.47,391,153.87,384.26,165.36c-7.51,12.73-200-124.23-206.81-112.74-5.92,10,213.31,107.33,207.43,117.31C377,183.28,188.11,51.47,184.36,57.85,176,72,388.87,158.21,382.11,169.69c-4.53,7.69-198.44-126.3-206.71-112.27-8.9,15.09,219,108.09,212.06,119.93-8.26,14-206.89-130.43-214.75-117.1-8,13.64,217.36,107.16,210.39,119C374.72,193.46,172.69,51.67,166.51,62.16,160.12,73,389,170.85,381.45,183.72,374.93,194.78,169.38,57.37,164.28,66c-8.81,15,220.34,106.31,212.25,120C370.48,196.32,164.21,57.72,158.91,66.71c-8.13,13.79,219.51,114.39,215.2,121.7-7.35,12.47-201.28-121.68-207-111.89-6.55,11.11,211.6,108,206.44,116.75C366.86,204.55,162.4,61.43,154,75.71c-5.09,8.64,233.85,115.76,226.56,128.13-7.1,12.05-214-128.17-218.66-120.2-6.27,10.63,217.59,105.22,209.7,118.6C365.21,213.06,151.65,64.87,145.76,74.85,139.37,85.69,379.93,187.37,371.12,202.3S153.37,70,147.45,80C138,96,384.18,200.82,378.4,210.61,372.48,220.66,149,70.79,144.2,79,136.55,92,376.39,195.82,370,206.68c-8.93,15.15-218-139.12-226.28-125C138.8,90,379.48,198.55,372.2,210.9c-4.27,7.25-227-135.72-232.11-127.08-5.62,9.54,237.85,120.65,231.72,131-4.45,7.55-211.64-135.2-220-121.07-8.09,13.72,227.6,111.69,220.08,124.46-6.08,10.32-228.09-141.91-235.76-128.9-9.61,16.31,247,124.77,240.43,136-4.36,7.41-225.14-144.56-234-129.46C137.71,104.09,375.11,214,369.22,224.05,362.64,235.22,143.57,85,135.72,98.34c-7.95,13.48,231.47,120.81,227,128.38-8.82,15-221.79-135-228.92-122.85C124.88,119,375.06,219.06,365.67,235c-8.21,13.92-229.84-143.25-237.89-129.6C118.4,121.31,363.31,222.6,356.24,234.6c-3.74,6.35-209.44-132.15-217.79-118C129.39,132,366,233.28,360.67,242.28c-4.49,7.62-216.6-137.37-225.11-122.92S352.34,230.72,347.37,239.15C340,251.64,132.1,108.39,126.42,118,121.18,126.92,358.7,229,349.67,244.3c-5.72,9.71-207.19-126.41-212.91-116.7C127.68,143,360.31,235.88,352.29,249.48c-7,11.83-223-142.64-231.53-128.1-5.86,9.94,243.36,116.78,234.15,132.42C346.56,268,136.2,121.19,129.73,132.16,123.61,142.54,358,240.65,348.87,256.1c-8,13.54-209.69-129.5-215.58-119.51C127,147.23,355.5,242.65,346.84,257.35,341.72,266,127.06,129.46,122.45,137.28c-4.77,8.1,235.33,120.87,229.93,130-4.21,7.14-215.19-139.45-223.36-125.6-8.74,14.83,222,111.25,215.7,122-4.45,7.55-217.61-136.23-223.89-125.58s232.66,121.2,228.07,129c-4.44,7.53-221.08-134.57-227.65-123.43-9.25,15.69,234,112.64,225.29,127.41C339.34,283.33,132,133.88,123.21,148.76,116.87,159.51,339.89,260.13,335,268.51c-4.63,7.86-200.2-123.84-205.32-115.15-6.11,10.37,219.27,105.33,211,119.33-4,6.8-217-133.92-223-123.74-5.16,8.75,236.47,123.25,231.84,131.11-5.12,8.68-215.93-125-219.92-118.26-5.36,9.1,220.76,112,215.09,121.64-6.1,10.35-213-124.26-217.55-116.49-8.67,14.7,216.27,102,207.31,117.24C326.3,298,121.19,154.33,116.92,161.57,110.1,173.15,342.16,279,337.75,286.46c-8.23,14-201.56-122.63-207.34-112.83-5.3,9,213.58,105.93,207,117.07C330.57,302.32,125.15,165.54,121,172.52c-7.21,12.23,218.32,108.66,211.77,119.77C327.36,301.53,130.53,172,127,178.1c-7.68,13,218.05,112.71,213.36,120.67-8.4,14.25-210.81-133.83-218-121.54C114.84,189.84,343.83,284.43,335.83,298c-7.89,13.38-210.53-129.33-217.48-117.54-4.71,8,221.69,115.07,217.13,122.8-7.38,12.52-209-123.39-213.83-115.13-5.27,8.95,210.63,105.56,204.63,115.73-7,12-199.75-124-205.83-113.68-3.9,6.61,226.69,110.89,219,123.87C332.15,326.49,127.16,187.5,123,194.56c-6.29,10.67,216,102.87,207.5,117.35C322.77,325,127,189.68,122.49,197.27c-7.09,12,224.24,110.29,216.93,122.69-6.83,11.59-212.76-129.42-216.91-122.38-7.65,13,215.73,103.27,207.45,117.32-7.24,12.29-192-117.57-198.81-106C125.18,219,335.27,314.85,331.07,322c-6.95,11.79-191.14-111.16-195.53-103.71-4.6,7.8,200.53,95.07,192.43,108.82-4.51,7.64-192.94-115-196.48-108.95-7.69,13,198.46,102.26,194.05,109.75-7.3,12.38-178.11-107.44-182.51-100C135.74,240.28,339,330,335.09,336.53c-7,11.94-177.38-112.83-184.68-100.44-7,11.86,182.65,85.5,174.78,98.85-4.42,7.5-177.77-104.89-180.94-99.51-5.72,9.7,190.5,93.4,184.16,104.15C323,348.72,161.84,232.92,156,242.87c-7.69,13,176.61,88.37,171.52,97-3.23,5.49-168-102.51-172-95.81-4.26,7.23,183.17,90.3,177.3,100.27-4.78,8.11-167.49-102.3-172-94.67-7.21,12.23,180.78,85.87,173.54,98.15-4.21,7.15-177.12-106.38-181.88-98.3-3.94,6.69,172.86,89.95,169.41,95.81-5.6,9.51-157.78-92.75-160.95-87.38-4.86,8.25,162,77.93,156,88.21-2.69,4.56-144.63-84-147.42-79.32-5.61,9.51,139.43,69,135.07,76.39-3.26,5.54-133.48-80.76-136.13-76.26-5.36,9.1,145.95,73.91,142.14,80.38-4.88,8.28-142.18-85.22-145.86-79-4.63,7.86,144.3,74.2,141,79.76C302.93,352.86,176.3,264.3,171,273.32c-4,6.72,134.93,66.1,130.42,73.76s-127.83-77.4-132.84-68.89c-5.25,8.91,119.42,62.18,117.05,66.2C283,348.72,172,275.13,169.12,280c-3.42,5.8,117.27,60.44,114.67,64.85-2.31,3.91-111.5-68.85-114.3-64.1-4,6.77,115.25,60.13,113,63.92-4.26,7.24-116.11-68.3-118.18-64.78-4.86,8.25,117,57.68,113.28,64.07-2.23,3.79-105.16-60-108.5-54.35-4,6.72,107,51.61,103,58.28-2.07,3.51-89.72-52.11-91.54-49-3.92,6.64,75.24,38.12,73.28,41.44C251,345.13,179.19,295,176.82,299c-3.54,6,90.81,44,87.57,49.53-3.55,6-93-57.07-95.57-52.67-3.07,5.21,95.11,45.92,91.63,51.82-2.37,4-76.11-40.23-77.86-37.26-2.21,3.75,69.08,32.51,66.18,37.43-2.51,4.26-74.51-42.73-76.52-39.31-1.62,2.75,67.36,35.18,66.07,37.36s-52.72-28.43-54.59-25.25c-1.45,2.47,40.58,17.81,38.31,21.66-1.78,3-44.82-27.22-45.9-25.38-1.69,2.86,47.95,23.65,46.42,26.25s-42.52-19.31-43.28-18c-1,1.68,43.54,20.7,41.81,23.64-1.35,2.28-37.28-21.25-38.39-19.38S214,345,213,346.62c-.74,1.25-26.34-14.08-27-12.9s17.6,7.4,16.47,9.31c-.9,1.53-27.2-15.83-27.68-15-1,1.63,26.82,11.9,25.37,14.35-.68,1.16-23.49-10.39-24.34-9-.47.8,18.71,8.18,17.65,10-.37.64-18.17-6.91-18.49-6.36-.7,1.19,10.31,4.46,9.7,5.49,0,.06-2.21.2-2.28.31-.39.65,3.07,1,2.74,1.55s-10.1-2.43-10.35-2,11.94,6.05,11.63,6.58-11.09-6.33-11.52-5.6c-.17.29,10.19,5.11,9.9,5.6-.17.29-9.3-2.65-9.55-2.22,0,.08,4,2.17,3.93,2.22s-3.82-2-3.9-1.9,3.37,1.88,3.36,1.9" fill="none" stroke="#999" stroke-linecap="round" stroke-linejoin="round" stroke-width="1.23"/><path d="M327.66,363.32c-.33.55,13.48,7,13.21,7.47-.54.91-21.24-7.66-21.9-6.55-1.1,1.87,17.84,8.21,17,9.62-.63,1.07-32.51-19.25-33.33-17.87-.91,1.55,44.55,21.6,43,24.3-1.25,2.12-42.79-23.17-43.76-21.52-2.07,3.5,33,14.5,31.19,17.64-1.21,2-32.41-18.35-33.19-17-2,3.34,49.62,25.45,48.47,27.41-1.44,2.44-58.9-35.19-60.71-32.12-2.12,3.6,57.29,27.08,54.94,31.07-1.15,2-61.37-35.21-62.9-32.62-2.54,4.31,53.2,26.59,51.65,29.21-2,3.35-54.45-30-56.46-26.63-1.42,2.41,64.63,32.65,62.91,35.58C336.65,393.14,277,355,275.82,357c-1.28,2.17,60.48,30.81,59,33.35-1.77,3-63.36-40.34-66-35.93s73.15,38.35,71.82,40.62c-1.69,2.86-61.41-37.55-62.81-35.17-2.08,3.53,63.49,31.13,61.38,34.71-2.48,4.2-66.29-40.28-68.61-36.35-3.11,5.27,61.4,28.49,58.65,33.17s-71.85-42-73.27-39.62c-2.3,3.91,69.39,34.9,67.47,38.16-2.72,4.62-68.42-38.28-70.7-34.41-1.67,2.83,67.14,34,65.38,37-2.06,3.49-71.77-36.69-73-34.58-2.5,4.25,82.07,41.38,79.85,45.16-2.52,4.28-86.8-52.38-88.46-49.55-3.56,6,76.74,37.24,74,41.86-1.5,2.55-75.82-39-77.13-36.77-3.62,6.15,74,37.13,71.9,40.66-2.61,4.43-79.36-46.83-82.43-41.63-2.89,4.9,89.67,44.89,87.1,49.26-3.32,5.62-83.81-47.28-86.84-42.14-3.18,5.39,69.32,34.29,67.14,38-2.91,4.94-73.52-42.87-76.21-38.31-3.67,6.23,85.66,42.6,83.08,47-2.43,4.12-91.67-55-94.25-50.67-2.73,4.63,82,39.93,79.16,44.77s-73.1-42.62-75.92-37.83c-2,3.38,69.46,33.76,67,37.9-2.91,4.94-75.41-41.06-77-38.42-2.83,4.8,74.18,37.57,72.24,40.86-2.74,4.66-74.23-40.24-76.35-36.63-1.48,2.5,72.12,34.53,69.35,39.22-2.14,3.63-60.89-39.44-63.14-35.63-3.22,5.46,67.2,30.68,64,36.17-2.33,4-72.17-43.07-73.93-40.07-2,3.41,63.72,29.74,60.94,34.46-2.16,3.67-54.75-33.26-56.8-29.78-2.43,4.11,59.4,28,56.93,32.2s-66.39-38.32-68.6-34.57c-2,3.39,63.67,31.52,61.69,34.89-2.13,3.61-53.66-31.33-54.68-29.6-2.74,4.65,51.91,24.32,49.68,28.1-1.23,2.09-55.41-31.8-57.66-28-2.64,4.47,56.77,27.42,54.7,30.93s-54.25-30.87-56.26-27.46c-2.11,3.57,45.38,21.54,43.56,24.63S176.26,383.68,175,385.86s34.63,16.06,33.07,18.7c-.82,1.4-28.5-12.46-29.14-11.36-1.09,1.85,10.7,3.79,9.7,5.49-.27.47-10.49-3.93-10.73-3.52-.37.62,13.39,7.13,13.2,7.46" fill="none" stroke="#999" stroke-linecap="round" stroke-linejoin="round" stroke-width="1.23"/><path d="M330.79,413.35c-.25.42,10.84,5.67,10.64,6-.54.92-21.31-7.7-22-6.59-1.21,2.06,22,10.38,21.09,11.93-.71,1.21-36.7-21.86-37.62-20.3s49.12,23.83,47.37,26.79c-1.37,2.33-47-25.78-48.08-24-2.27,3.85,38.32,17.07,36.28,20.52-1.41,2.39-37.61-21.59-38.52-20.05-2.18,3.69,55.64,28.58,54.36,30.74C352.79,441.1,290,399.79,288,403.15c-2.32,3.94,63.24,29.95,60.66,34.31-1.26,2.14-67.13-38.79-68.81-36-2.81,4.76,60.23,30.2,58.52,33.1-2.22,3.77-60.9-34.26-63.17-30.42-1.57,2.66,72.46,36.66,70.55,39.9-1.25,2.11-68.28-40.81-69.59-38.58-1.41,2.4,68.5,35,66.84,37.8-2,3.36-70.93-45.33-73.84-40.39-2.8,4.75,81.55,42.76,80.07,45.28-1.91,3.24-69.48-42.53-71.07-39.84-2.31,3.92,72.07,35.46,69.73,39.43-2.78,4.71-74.22-45.39-76.82-41-3.44,5.84,70.21,32.8,67.16,38s-80.11-47.07-81.69-44.38c-2.55,4.33,78.34,39.49,76.21,43.1-3.07,5.21-76.79-43.67-79.37-39.31-1.86,3.16,77.18,39.19,75.21,42.54-2.33,4-81.1-42.35-82.51-40-2.81,4.76,93,47,90.54,51.2-2.83,4.8-97.27-58.76-99.14-55.59-4,6.76,87.85,42.77,84.79,48-1.71,2.91-86.08-45.21-87.57-42.68-4.08,6.93,85.82,43.22,83.47,47.21-3,5.05-90.27-54-93.78-48C221.19,412.37,326.63,458,323.71,463c-3.78,6.41-95.18-54.67-98.64-48.81-3.63,6.16,82.69,41.15,80.21,45.36-3.42,5.8-86-51-89.11-45.61-4.22,7.16,99.74,49.69,96.77,54.73-2.78,4.72-104.83-63.33-107.78-58.32-3.15,5.34,96.45,47.1,93.16,52.69-3.48,5.9-86.4-51.34-89.75-45.65-2.32,3.94,84.63,41.42,81.78,46.25-3.48,5.9-89.61-49.78-91.47-46.62-3.33,5.65,89.93,45.7,87.65,49.57-3.32,5.62-89.11-49.65-91.67-45.3-1.77,3,89.31,43,86,48.63-2.7,4.59-76.93-49.85-79.77-45-3.87,6.57,84.49,39,80.6,45.58-2.86,4.85-88.3-53.09-90.46-49.42-2.43,4.12,81.14,38.28,77.78,44-2.81,4.77-70.86-43.76-73.52-39.24-3,5,77.08,36.8,74.08,41.89s-83.22-49.13-86-44.41c-2.49,4.23,82.66,41.14,80.18,45.34-2.85,4.84-71.72-42.32-73.09-40-3.44,5.84,71.14,33.9,68.34,38.65-1.65,2.81-73.64-43.84-76.66-38.72-3.45,5.85,77.8,37.88,75.1,42.47-2.91,4.94-74.13-43.84-76.9-39.14-2.88,4.88,67.76,32.68,65.27,36.91-2.65,4.49-67.94-37.41-69.89-34.1s61.07,29.1,58.67,33.18c-1.7,2.89-56.89-30.07-58.22-27.81-2.38,4,45.79,20.95,43.6,24.66-1.24,2.11-44.83-24.09-45.91-22.24-1.84,3.11,36.13,18.23,35.16,19.89-.67,1.13-19.94-7.27-20.47-6.38-.94,1.6,6.61,2.06,5.86,3.32-.33.56-11.48-4.44-11.9-3.73-.17.29,10.89,5.6,10.64,6" fill="none" stroke="#999" stroke-linecap="round" stroke-linejoin="round" stroke-width="1.23"/><path d="M308.87,446.43c-.27.47,11.78,6.15,11.56,6.54-.51.86-20.17-7-20.79-5.93-1.18,2,20.87,9.78,20,11.3-.68,1.15-34.93-20.76-35.8-19.27-1,1.65,47.62,23.1,45.93,26-1.32,2.23-45.05-24.57-46.08-22.84-2.21,3.74,36.72,16.29,34.74,19.65-1.32,2.25-35.45-20.24-36.3-18.8-2.1,3.57,53.5,27.47,52.27,29.56-1.51,2.56-61.8-37-63.7-33.81-2.25,3.83,61.29,29,58.79,33.25-1.21,2.06-64.68-37.26-66.29-34.53-2.71,4.6,57.72,28.91,56.07,31.71-2.08,3.52-57.11-31.78-59.23-28.19-1.51,2.56,69.43,35.11,67.59,38.22-1.19,2-65.19-38.93-66.44-36.8-1.36,2.31,65.32,33.33,63.72,36-1.89,3.2-67.62-43.15-70.4-38.44-2.69,4.56,78.1,41,76.68,43.37-1.82,3.08-66.09-40.43-67.6-37.88-2.21,3.75,68.52,33.67,66.27,37.48-2.62,4.45-70.12-42.75-72.57-38.59-3.29,5.59,66.29,30.88,63.37,35.84s-75.93-44.52-77.43-42c-2.44,4.15,74.44,37.49,72.41,40.95-2.86,4.85-71.64-40.35-74-36.29-1.77,3,72.15,36.58,70.28,39.75-2.13,3.62-74.38-38.28-75.68-36.09-2.64,4.47,86.91,43.85,84.56,47.82-2.65,4.5-91.28-55.11-93-52.13-3.74,6.35,81.58,39.65,78.71,44.51-1.55,2.63-78-40.32-79.37-38-3.79,6.44,78.33,39.37,76.15,43.06-2.69,4.56-81.69-48.36-84.85-43-3,5.09,93.37,46.75,90.69,51.29-3.36,5.7-84.85-48-87.92-42.75-3.28,5.56,72.26,35.8,70,39.6-2.95,5-74.38-43.43-77.1-38.82-3.76,6.38,87.94,43.75,85.29,48.24-2.46,4.17-92.84-55.78-95.45-51.35-2.78,4.72,83.72,40.77,80.81,45.7s-72.56-42.27-75.36-37.51c-2,3.4,70,34,67.52,38.19-2.85,4.83-73.78-40.06-75.31-37.48-2.8,4.76,73.35,37.14,71.43,40.4-2.6,4.4-70.31-37.76-72.31-34.35-1.42,2.41,69,33,66.36,37.53-2,3.46-58-37.54-60.11-33.91-3.1,5.26,64,29.17,60.93,34.46-2.21,3.75-68.4-40.73-70.08-37.89-1.92,3.25,59.82,27.82,57.16,32.33-2,3.33-49.73-30-51.59-26.83-2.27,3.85,54.14,25.4,51.83,29.31C253,508.69,196,471.33,194,474.66c-1.8,3.06,56.3,27.78,54.5,30.82s-45.88-26.59-46.75-25.11c-2.44,4.14,43.65,20.2,41.67,23.57-1,1.66-44.35-24.49-46.13-21.46-2.16,3.67,44.45,21.3,42.75,24.18-1.48,2.51-38.46-20.58-39.86-18.19s26.77,12.27,25.5,14.42c-.79,1.34-21.47-8.44-22.05-7.45-.25.42,11.82,6,11.53,6.52" fill="none" stroke="#999" stroke-linecap="round" stroke-linejoin="round" stroke-width="1.23"/><path d="M395.3,157.88A128.16,128.16,0,0,1,370,234.28a56.6,56.6,0,0,0-4.32,5.57C342,274,335.43,348.22,335.43,348.22H176.57S170,274,146.34,239.85a57.24,57.24,0,0,0-4.33-5.57,128.14,128.14,0,0,1-25.32-76.4c0-73.17,62-132.57,138.8-133.15a.58.58,0,0,0,.17,0,2.49,2.49,0,0,1,.34,0,2.36,2.36,0,0,1,.33,0,.55.55,0,0,0,.16,0C333.27,25.31,395.3,84.71,395.3,157.88Z" fill="none" stroke="#fff" stroke-miterlimit="10" stroke-width="52.46"/><ellipse cx="259.36" cy="382.98" rx="88.73" ry="30.81" fill="none" stroke="#fff" stroke-miterlimit="10" stroke-width="58.63"/><path d="M391.57,154.23c2.91,28.52-3,61.07-24.56,84.82,3.77-2.52.31-2.19-2.78,5.65-23,34.69-29.67,99.07-31.29,98.13,3,5.57-157.3,7.07-154.16-1.23-.69,1.75-11.25-66.44-33.9-98.48-1.32-2.39-4.56-1.08-2.19-4.6-18-25.17-30.05-56.43-25.64-82-2.91-67.94,63.58-134.06,138.7-123.92-2-15.93.52-14.17-1.32-1.3,3.26-4.86,3.92-3.29.95-10.62,3.11,7.74,1.73,8.37,3.07,7.85-1.5-9.92-3.7-.72-.8-7C332,24.58,396.47,86.42,391.57,154.23Z" fill="none" stroke="#666" stroke-width="3.09"/><path d="M346.74,382.06c3.72,17.07-39.26,32.31-88.2,31.07-49,1.64-88.74-12.93-88.4-30.82-1.09-15.57,38.15-30.63,89.3-30.64C310.13,351.56,347.64,366.06,346.74,382.06Z" fill="none" stroke="#666" stroke-width="3.09"/><path d="M353.59,436c-.23,21.78-39.94,38.2-93.3,37.7-50.64-.27-88.83-15.49-88.42-37-3.72-19,38.27-35.65,91-35C313.36,400.44,353.71,417.24,353.59,436Z" fill="none" stroke="#666" stroke-width="3.09"/><path d="M332.7,473.74c3.08,21.69-29.81,38.93-71.21,38.2-38.38.29-71.68-16.3-69-37.62-3.41-21.55,29.78-38.06,68.42-37.73C302.79,435.68,333.75,454.53,332.7,473.74Z" fill="none" stroke="#666" stroke-width="3.09"/><path d="M391.84,159.4c4,28.36-6.7,52.86-24.74,72.91,4.48,3.4-2,7.47-.69,6.46C343.7,272.63,340.26,349,341,351.3c-7-2.32-158.21-3.06-162.37-1.79-6.08-1.75-12.12-78.94-30.4-106.54-7.62-3-.94-7.6-11.18-8.21-8.71-24.22-18.79-45.25-20.09-79.35C121.92,83,176.35,27.06,256.62,23.09c1.24,5.43,3.34,2.47-1.81.13-2.63,2.49,4.56,2.58.85-2.62,1.43,8.38-4.83,7.57,5.17,1-1.41,7.4-.72,3.23-2.14,3.25C334.2,25.2,397.86,85,391.84,159.4Z" fill="none" stroke="#4c4c4c" stroke-width="2.31"/><path d="M348.3,383.42c-4.06,16.86-41.16,29.48-87.36,31.29-49.63-1.46-86.68-14.27-93.74-31.87,7.51-16.35,45.11-29.85,92.74-30.43C310.16,352.33,347.57,365.91,348.3,383.42Z" fill="none" stroke="#4c4c4c" stroke-width="2.31"/><path d="M351.26,437.67c1.13,20.06-39.51,36.88-86.52,36.27-55.93.37-94.47-16.62-92.4-37-2.61-19.68,39.54-35.69,88.61-36.28C314.45,400.84,353.49,417.68,351.26,437.67Z" fill="none" stroke="#4c4c4c" stroke-width="2.31"/><path d="M335.51,473.66c-.22,21.2-32.36,36.62-74.87,37.73-37.46-.34-71.17-16.4-72-37.07,1.61-20.66,36-36.2,75.3-37.58C303.44,437.16,333.75,453.42,335.51,473.66Z" fill="none" stroke="#4c4c4c" stroke-width="2.31"/></svg>